<?xml version="1.0" standalone="no"?>
<!DOCTYPE svg PUBLIC "-//W3C//DTD SVG 20010904//EN"
 "http://www.w3.org/TR/2001/REC-SVG-20010904/DTD/svg10.dtd">
<svg version="1.0" xmlns="http://www.w3.org/2000/svg"
 width="512.000000pt" height="512.000000pt" viewBox="0 0 512.000000 512.000000"
 preserveAspectRatio="xMidYMid meet">
<metadata>
Created by potrace 1.11, written by Peter Selinger 2001-2013
</metadata>
<g transform="translate(0.000000,512.000000) scale(0.100000,-0.100000)"
fill="#000000" stroke="none">
<path d="M203 5102 c-100 -35 -171 -115 -193 -216 -8 -36 -10 -711 -8 -2361
l3 -2310 23 -42 c33 -63 74 -106 134 -139 l53 -29 2345 0 2345 0 53 29 c60 33
101 76 134 139 l23 42 0 2340 0 2340 -28 57 c-32 64 -80 111 -146 142 l-46 21
-2320 2 c-2207 2 -2323 2 -2372 -15z m1777 -1862 l0 -490 570 0 570 0 2 488 3
487 130 0 130 0 3 -1107 2 -1108 -135 0 -135 0 0 505 0 505 -570 0 -570 0 0
-505 0 -505 -130 0 -130 0 0 1110 0 1110 130 0 130 0 0 -490z"/>
</g>
</svg>
